<mxfile host="app.diagrams.net" agent="Mozilla/5.0 (Windows NT 10.0; Win64; x64) AppleWebKit/537.36 (KHTML, like Gecko) Chrome/128.0.0.0 Safari/537.36" version="24.7.14">
  <diagram name="Page-1" id="2oIcgv48rsFbRuFE8hWv">
    <mxGraphModel dx="1313" dy="711" grid="1" gridSize="10" guides="1" tooltips="1" connect="1" arrows="1" fold="1" page="1" pageScale="1" pageWidth="850" pageHeight="1100" math="0" shadow="0">
      <root>
        <mxCell id="0" />
        <mxCell id="1" parent="0" />
        <mxCell id="Rj8w-bVWe5VZsiDT0nC8-1" value="User" style="rounded=0;whiteSpace=wrap;html=1;" parent="1" vertex="1">
          <mxGeometry x="275" y="380" width="44" height="23" as="geometry" />
        </mxCell>
        <mxCell id="Rj8w-bVWe5VZsiDT0nC8-2" value="user_id" style="ellipse;whiteSpace=wrap;html=1;" parent="1" vertex="1">
          <mxGeometry x="145" y="330" width="60" height="30" as="geometry" />
        </mxCell>
        <mxCell id="Rj8w-bVWe5VZsiDT0nC8-3" value="" style="endArrow=none;html=1;rounded=0;entryX=0;entryY=0.25;entryDx=0;entryDy=0;exitX=1;exitY=1;exitDx=0;exitDy=0;" parent="1" source="Rj8w-bVWe5VZsiDT0nC8-2" target="Rj8w-bVWe5VZsiDT0nC8-1" edge="1">
          <mxGeometry width="50" height="50" relative="1" as="geometry">
            <mxPoint x="165" y="480" as="sourcePoint" />
            <mxPoint x="215" y="430" as="targetPoint" />
          </mxGeometry>
        </mxCell>
        <mxCell id="Rj8w-bVWe5VZsiDT0nC8-4" value="username" style="ellipse;whiteSpace=wrap;html=1;" parent="1" vertex="1">
          <mxGeometry x="130" y="373" width="70" height="30" as="geometry" />
        </mxCell>
        <mxCell id="Rj8w-bVWe5VZsiDT0nC8-5" value="" style="endArrow=none;html=1;rounded=0;entryX=0;entryY=0.25;entryDx=0;entryDy=0;exitX=1;exitY=0.5;exitDx=0;exitDy=0;" parent="1" source="Rj8w-bVWe5VZsiDT0nC8-4" target="Rj8w-bVWe5VZsiDT0nC8-1" edge="1">
          <mxGeometry width="50" height="50" relative="1" as="geometry">
            <mxPoint x="145" y="520" as="sourcePoint" />
            <mxPoint x="255" y="426" as="targetPoint" />
          </mxGeometry>
        </mxCell>
        <mxCell id="Rj8w-bVWe5VZsiDT0nC8-6" value="email" style="ellipse;whiteSpace=wrap;html=1;" parent="1" vertex="1">
          <mxGeometry x="140" y="410" width="60" height="30" as="geometry" />
        </mxCell>
        <mxCell id="Rj8w-bVWe5VZsiDT0nC8-7" value="" style="endArrow=none;html=1;rounded=0;entryX=0;entryY=0.25;entryDx=0;entryDy=0;exitX=1;exitY=0.5;exitDx=0;exitDy=0;" parent="1" source="Rj8w-bVWe5VZsiDT0nC8-6" target="Rj8w-bVWe5VZsiDT0nC8-1" edge="1">
          <mxGeometry width="50" height="50" relative="1" as="geometry">
            <mxPoint x="135" y="560" as="sourcePoint" />
            <mxPoint x="245" y="466" as="targetPoint" />
          </mxGeometry>
        </mxCell>
        <mxCell id="Rj8w-bVWe5VZsiDT0nC8-8" value="password" style="ellipse;whiteSpace=wrap;html=1;" parent="1" vertex="1">
          <mxGeometry x="175" y="440" width="70" height="30" as="geometry" />
        </mxCell>
        <mxCell id="Rj8w-bVWe5VZsiDT0nC8-9" value="" style="endArrow=none;html=1;rounded=0;exitX=1;exitY=0;exitDx=0;exitDy=0;entryX=0;entryY=0.25;entryDx=0;entryDy=0;" parent="1" source="Rj8w-bVWe5VZsiDT0nC8-8" target="Rj8w-bVWe5VZsiDT0nC8-1" edge="1">
          <mxGeometry width="50" height="50" relative="1" as="geometry">
            <mxPoint x="135" y="600" as="sourcePoint" />
            <mxPoint x="275" y="390" as="targetPoint" />
          </mxGeometry>
        </mxCell>
        <mxCell id="Rj8w-bVWe5VZsiDT0nC8-10" value="" style="rhombus;whiteSpace=wrap;html=1;" parent="1" vertex="1">
          <mxGeometry x="366.5" y="362.25" width="60" height="58.5" as="geometry" />
        </mxCell>
        <mxCell id="Rj8w-bVWe5VZsiDT0nC8-11" value="" style="endArrow=none;html=1;rounded=0;exitX=1;exitY=0.5;exitDx=0;exitDy=0;entryX=0;entryY=0.5;entryDx=0;entryDy=0;" parent="1" source="Rj8w-bVWe5VZsiDT0nC8-1" target="Rj8w-bVWe5VZsiDT0nC8-10" edge="1">
          <mxGeometry width="50" height="50" relative="1" as="geometry">
            <mxPoint x="350" y="380" as="sourcePoint" />
            <mxPoint x="365" y="390" as="targetPoint" />
          </mxGeometry>
        </mxCell>
        <mxCell id="Rj8w-bVWe5VZsiDT0nC8-16" value="1" style="edgeLabel;html=1;align=center;verticalAlign=middle;resizable=0;points=[];" parent="Rj8w-bVWe5VZsiDT0nC8-11" vertex="1" connectable="0">
          <mxGeometry x="0.5289" relative="1" as="geometry">
            <mxPoint as="offset" />
          </mxGeometry>
        </mxCell>
        <mxCell id="Rj8w-bVWe5VZsiDT0nC8-13" value="profile_id" style="ellipse;whiteSpace=wrap;html=1;" parent="1" vertex="1">
          <mxGeometry x="200" y="310" width="70" height="30" as="geometry" />
        </mxCell>
        <mxCell id="Rj8w-bVWe5VZsiDT0nC8-14" value="" style="endArrow=none;html=1;rounded=0;exitX=0.5;exitY=1;exitDx=0;exitDy=0;entryX=0;entryY=0.25;entryDx=0;entryDy=0;" parent="1" source="Rj8w-bVWe5VZsiDT0nC8-13" target="Rj8w-bVWe5VZsiDT0nC8-1" edge="1">
          <mxGeometry width="50" height="50" relative="1" as="geometry">
            <mxPoint x="225" y="457" as="sourcePoint" />
            <mxPoint x="275" y="390" as="targetPoint" />
          </mxGeometry>
        </mxCell>
        <mxCell id="Rj8w-bVWe5VZsiDT0nC8-18" value="profile" style="rounded=0;whiteSpace=wrap;html=1;" parent="1" vertex="1">
          <mxGeometry x="495" y="376.5" width="60" height="30" as="geometry" />
        </mxCell>
        <mxCell id="Rj8w-bVWe5VZsiDT0nC8-19" value="" style="endArrow=none;html=1;rounded=0;entryX=0;entryY=0.5;entryDx=0;entryDy=0;exitX=1;exitY=0.5;exitDx=0;exitDy=0;" parent="1" source="Rj8w-bVWe5VZsiDT0nC8-10" target="Rj8w-bVWe5VZsiDT0nC8-18" edge="1">
          <mxGeometry width="50" height="50" relative="1" as="geometry">
            <mxPoint x="375" y="530" as="sourcePoint" />
            <mxPoint x="425" y="480" as="targetPoint" />
          </mxGeometry>
        </mxCell>
        <mxCell id="Rj8w-bVWe5VZsiDT0nC8-20" value="1" style="edgeLabel;html=1;align=center;verticalAlign=middle;resizable=0;points=[];" parent="Rj8w-bVWe5VZsiDT0nC8-19" vertex="1" connectable="0">
          <mxGeometry x="-0.408" y="3" relative="1" as="geometry">
            <mxPoint y="1" as="offset" />
          </mxGeometry>
        </mxCell>
        <mxCell id="Rj8w-bVWe5VZsiDT0nC8-21" value="profile_id" style="ellipse;whiteSpace=wrap;html=1;" parent="1" vertex="1">
          <mxGeometry x="395" y="320" width="70" height="30" as="geometry" />
        </mxCell>
        <mxCell id="Rj8w-bVWe5VZsiDT0nC8-22" value="" style="endArrow=none;html=1;rounded=0;exitX=0.669;exitY=1.033;exitDx=0;exitDy=0;entryX=0.25;entryY=0;entryDx=0;entryDy=0;exitPerimeter=0;" parent="1" source="Rj8w-bVWe5VZsiDT0nC8-21" target="Rj8w-bVWe5VZsiDT0nC8-18" edge="1">
          <mxGeometry width="50" height="50" relative="1" as="geometry">
            <mxPoint x="450" y="411" as="sourcePoint" />
            <mxPoint x="500" y="340" as="targetPoint" />
          </mxGeometry>
        </mxCell>
        <mxCell id="Rj8w-bVWe5VZsiDT0nC8-23" value="user_id" style="ellipse;whiteSpace=wrap;html=1;" parent="1" vertex="1">
          <mxGeometry x="435" y="290" width="70" height="30" as="geometry" />
        </mxCell>
        <mxCell id="Rj8w-bVWe5VZsiDT0nC8-24" value="" style="endArrow=none;html=1;rounded=0;exitX=0.5;exitY=1;exitDx=0;exitDy=0;entryX=0.25;entryY=0;entryDx=0;entryDy=0;" parent="1" source="Rj8w-bVWe5VZsiDT0nC8-23" target="Rj8w-bVWe5VZsiDT0nC8-18" edge="1">
          <mxGeometry width="50" height="50" relative="1" as="geometry">
            <mxPoint x="530" y="394" as="sourcePoint" />
            <mxPoint x="580" y="360" as="targetPoint" />
          </mxGeometry>
        </mxCell>
        <mxCell id="Rj8w-bVWe5VZsiDT0nC8-25" value="first_name" style="ellipse;whiteSpace=wrap;html=1;" parent="1" vertex="1">
          <mxGeometry x="485" y="260" width="70" height="30" as="geometry" />
        </mxCell>
        <mxCell id="Rj8w-bVWe5VZsiDT0nC8-26" value="" style="endArrow=none;html=1;rounded=0;exitX=0.5;exitY=1;exitDx=0;exitDy=0;entryX=0.25;entryY=0;entryDx=0;entryDy=0;" parent="1" source="Rj8w-bVWe5VZsiDT0nC8-25" target="Rj8w-bVWe5VZsiDT0nC8-18" edge="1">
          <mxGeometry width="50" height="50" relative="1" as="geometry">
            <mxPoint x="580" y="407" as="sourcePoint" />
            <mxPoint x="630" y="373" as="targetPoint" />
          </mxGeometry>
        </mxCell>
        <mxCell id="TDnGn_1f78GrU_RNi5Ye-1" value="last_name" style="ellipse;whiteSpace=wrap;html=1;" parent="1" vertex="1">
          <mxGeometry x="555" y="270" width="70" height="30" as="geometry" />
        </mxCell>
        <mxCell id="TDnGn_1f78GrU_RNi5Ye-2" value="" style="endArrow=none;html=1;rounded=0;exitX=0.057;exitY=0.767;exitDx=0;exitDy=0;entryX=0.25;entryY=0;entryDx=0;entryDy=0;exitPerimeter=0;" parent="1" source="TDnGn_1f78GrU_RNi5Ye-1" target="Rj8w-bVWe5VZsiDT0nC8-18" edge="1">
          <mxGeometry width="50" height="50" relative="1" as="geometry">
            <mxPoint x="605" y="440" as="sourcePoint" />
            <mxPoint x="535" y="410" as="targetPoint" />
          </mxGeometry>
        </mxCell>
        <mxCell id="TDnGn_1f78GrU_RNi5Ye-3" value="profile_picture" style="ellipse;whiteSpace=wrap;html=1;" parent="1" vertex="1">
          <mxGeometry x="595" y="300" width="90" height="30" as="geometry" />
        </mxCell>
        <mxCell id="TDnGn_1f78GrU_RNi5Ye-4" value="" style="endArrow=none;html=1;rounded=0;exitX=0.057;exitY=0.767;exitDx=0;exitDy=0;entryX=0.25;entryY=0;entryDx=0;entryDy=0;exitPerimeter=0;" parent="1" source="TDnGn_1f78GrU_RNi5Ye-3" target="Rj8w-bVWe5VZsiDT0nC8-18" edge="1">
          <mxGeometry width="50" height="50" relative="1" as="geometry">
            <mxPoint x="620" y="473" as="sourcePoint" />
            <mxPoint x="525" y="410" as="targetPoint" />
          </mxGeometry>
        </mxCell>
        <mxCell id="TDnGn_1f78GrU_RNi5Ye-6" value="bio" style="ellipse;whiteSpace=wrap;html=1;" parent="1" vertex="1">
          <mxGeometry x="605" y="340" width="55" height="30" as="geometry" />
        </mxCell>
        <mxCell id="TDnGn_1f78GrU_RNi5Ye-7" value="" style="endArrow=none;html=1;rounded=0;exitX=0;exitY=0.5;exitDx=0;exitDy=0;entryX=0.25;entryY=0;entryDx=0;entryDy=0;" parent="1" source="TDnGn_1f78GrU_RNi5Ye-6" target="Rj8w-bVWe5VZsiDT0nC8-18" edge="1">
          <mxGeometry width="50" height="50" relative="1" as="geometry">
            <mxPoint x="650" y="504.5" as="sourcePoint" />
            <mxPoint x="555" y="441.5" as="targetPoint" />
          </mxGeometry>
        </mxCell>
        <mxCell id="TDnGn_1f78GrU_RNi5Ye-8" value="" style="rhombus;whiteSpace=wrap;html=1;" parent="1" vertex="1">
          <mxGeometry x="264" y="480" width="68" height="60" as="geometry" />
        </mxCell>
        <mxCell id="TDnGn_1f78GrU_RNi5Ye-9" value="" style="endArrow=none;html=1;rounded=0;entryX=0.5;entryY=0;entryDx=0;entryDy=0;exitX=0.5;exitY=1;exitDx=0;exitDy=0;" parent="1" source="Rj8w-bVWe5VZsiDT0nC8-1" target="TDnGn_1f78GrU_RNi5Ye-8" edge="1">
          <mxGeometry width="50" height="50" relative="1" as="geometry">
            <mxPoint x="295" y="401" as="sourcePoint" />
            <mxPoint x="335" y="467.75" as="targetPoint" />
          </mxGeometry>
        </mxCell>
        <mxCell id="TDnGn_1f78GrU_RNi5Ye-10" value="1" style="edgeLabel;html=1;align=center;verticalAlign=middle;resizable=0;points=[];" parent="TDnGn_1f78GrU_RNi5Ye-9" vertex="1" connectable="0">
          <mxGeometry x="0.5289" relative="1" as="geometry">
            <mxPoint as="offset" />
          </mxGeometry>
        </mxCell>
        <mxCell id="TDnGn_1f78GrU_RNi5Ye-11" value="" style="endArrow=none;html=1;rounded=0;exitX=0.5;exitY=1;exitDx=0;exitDy=0;entryX=0.5;entryY=0;entryDx=0;entryDy=0;" parent="1" source="TDnGn_1f78GrU_RNi5Ye-8" target="HAXW_RtDJW_a83ujI_BT-6" edge="1">
          <mxGeometry width="50" height="50" relative="1" as="geometry">
            <mxPoint x="345" y="607.75" as="sourcePoint" />
            <mxPoint x="300" y="610" as="targetPoint" />
          </mxGeometry>
        </mxCell>
        <mxCell id="TDnGn_1f78GrU_RNi5Ye-12" value="n" style="edgeLabel;html=1;align=center;verticalAlign=middle;resizable=0;points=[];" parent="TDnGn_1f78GrU_RNi5Ye-11" vertex="1" connectable="0">
          <mxGeometry x="-0.408" y="3" relative="1" as="geometry">
            <mxPoint y="1" as="offset" />
          </mxGeometry>
        </mxCell>
        <mxCell id="TDnGn_1f78GrU_RNi5Ye-13" value="Task" style="rounded=0;whiteSpace=wrap;html=1;" parent="1" vertex="1">
          <mxGeometry x="275" y="830" width="44" height="23" as="geometry" />
        </mxCell>
        <mxCell id="TDnGn_1f78GrU_RNi5Ye-14" value="&lt;code&gt;task_id&lt;/code&gt;" style="ellipse;whiteSpace=wrap;html=1;" parent="1" vertex="1">
          <mxGeometry x="155" y="860" width="70" height="30" as="geometry" />
        </mxCell>
        <mxCell id="TDnGn_1f78GrU_RNi5Ye-15" value="" style="endArrow=none;html=1;rounded=0;exitX=1;exitY=0.5;exitDx=0;exitDy=0;entryX=0.25;entryY=1;entryDx=0;entryDy=0;" parent="1" source="TDnGn_1f78GrU_RNi5Ye-14" target="TDnGn_1f78GrU_RNi5Ye-13" edge="1">
          <mxGeometry width="50" height="50" relative="1" as="geometry">
            <mxPoint x="220" y="1072.75" as="sourcePoint" />
            <mxPoint x="270" y="1005.75" as="targetPoint" />
          </mxGeometry>
        </mxCell>
        <mxCell id="TDnGn_1f78GrU_RNi5Ye-18" value="&lt;code&gt;user_id&lt;/code&gt;" style="ellipse;whiteSpace=wrap;html=1;" parent="1" vertex="1">
          <mxGeometry x="136" y="900" width="70" height="30" as="geometry" />
        </mxCell>
        <mxCell id="TDnGn_1f78GrU_RNi5Ye-19" value="" style="endArrow=none;html=1;rounded=0;exitX=1;exitY=0.5;exitDx=0;exitDy=0;entryX=0.25;entryY=1;entryDx=0;entryDy=0;" parent="1" source="TDnGn_1f78GrU_RNi5Ye-18" target="TDnGn_1f78GrU_RNi5Ye-13" edge="1">
          <mxGeometry width="50" height="50" relative="1" as="geometry">
            <mxPoint x="250" y="1109.75" as="sourcePoint" />
            <mxPoint x="316" y="1025.75" as="targetPoint" />
          </mxGeometry>
        </mxCell>
        <mxCell id="TDnGn_1f78GrU_RNi5Ye-20" value="&lt;code&gt;title&lt;/code&gt;" style="ellipse;whiteSpace=wrap;html=1;" parent="1" vertex="1">
          <mxGeometry x="160.5" y="940" width="59" height="26" as="geometry" />
        </mxCell>
        <mxCell id="TDnGn_1f78GrU_RNi5Ye-21" value="" style="endArrow=none;html=1;rounded=0;entryX=0.25;entryY=1;entryDx=0;entryDy=0;" parent="1" source="TDnGn_1f78GrU_RNi5Ye-20" target="TDnGn_1f78GrU_RNi5Ye-13" edge="1">
          <mxGeometry width="50" height="50" relative="1" as="geometry">
            <mxPoint x="301" y="1136.75" as="sourcePoint" />
            <mxPoint x="337" y="1015.75" as="targetPoint" />
          </mxGeometry>
        </mxCell>
        <mxCell id="TDnGn_1f78GrU_RNi5Ye-22" value="&lt;code&gt;description&lt;/code&gt;" style="ellipse;whiteSpace=wrap;html=1;" parent="1" vertex="1">
          <mxGeometry x="160.5" y="980" width="81" height="36" as="geometry" />
        </mxCell>
        <mxCell id="TDnGn_1f78GrU_RNi5Ye-23" value="" style="endArrow=none;html=1;rounded=0;entryX=0.25;entryY=1;entryDx=0;entryDy=0;" parent="1" source="TDnGn_1f78GrU_RNi5Ye-22" target="TDnGn_1f78GrU_RNi5Ye-13" edge="1">
          <mxGeometry width="50" height="50" relative="1" as="geometry">
            <mxPoint x="379" y="1136.75" as="sourcePoint" />
            <mxPoint x="305" y="988.7499999999999" as="targetPoint" />
          </mxGeometry>
        </mxCell>
        <mxCell id="TDnGn_1f78GrU_RNi5Ye-24" value="&lt;code&gt;due_date&lt;/code&gt;" style="ellipse;whiteSpace=wrap;html=1;" parent="1" vertex="1">
          <mxGeometry x="241.5" y="1000" width="70" height="26" as="geometry" />
        </mxCell>
        <mxCell id="TDnGn_1f78GrU_RNi5Ye-25" value="" style="endArrow=none;html=1;rounded=0;entryX=0.25;entryY=1;entryDx=0;entryDy=0;exitX=0.4;exitY=-0.023;exitDx=0;exitDy=0;exitPerimeter=0;" parent="1" source="TDnGn_1f78GrU_RNi5Ye-24" target="TDnGn_1f78GrU_RNi5Ye-13" edge="1">
          <mxGeometry width="50" height="50" relative="1" as="geometry">
            <mxPoint x="380" y="1131.75" as="sourcePoint" />
            <mxPoint x="365" y="983.75" as="targetPoint" />
          </mxGeometry>
        </mxCell>
        <mxCell id="TDnGn_1f78GrU_RNi5Ye-26" value="&lt;code&gt;priority&lt;/code&gt;" style="ellipse;whiteSpace=wrap;html=1;" parent="1" vertex="1">
          <mxGeometry x="280" y="966" width="70" height="26" as="geometry" />
        </mxCell>
        <mxCell id="TDnGn_1f78GrU_RNi5Ye-27" value="" style="endArrow=none;html=1;rounded=0;entryX=0.25;entryY=1;entryDx=0;entryDy=0;" parent="1" source="TDnGn_1f78GrU_RNi5Ye-26" target="TDnGn_1f78GrU_RNi5Ye-13" edge="1">
          <mxGeometry width="50" height="50" relative="1" as="geometry">
            <mxPoint x="409" y="1098.75" as="sourcePoint" />
            <mxPoint x="315" y="955.75" as="targetPoint" />
          </mxGeometry>
        </mxCell>
        <mxCell id="TDnGn_1f78GrU_RNi5Ye-28" value="&lt;code&gt;status&lt;/code&gt;" style="ellipse;whiteSpace=wrap;html=1;" parent="1" vertex="1">
          <mxGeometry x="319" y="930" width="57" height="27" as="geometry" />
        </mxCell>
        <mxCell id="TDnGn_1f78GrU_RNi5Ye-29" value="" style="endArrow=none;html=1;rounded=0;entryX=0.25;entryY=1;entryDx=0;entryDy=0;exitX=0;exitY=0;exitDx=0;exitDy=0;" parent="1" source="TDnGn_1f78GrU_RNi5Ye-28" target="TDnGn_1f78GrU_RNi5Ye-13" edge="1">
          <mxGeometry width="50" height="50" relative="1" as="geometry">
            <mxPoint x="442" y="1067.75" as="sourcePoint" />
            <mxPoint x="319" y="957.75" as="targetPoint" />
          </mxGeometry>
        </mxCell>
        <mxCell id="TDnGn_1f78GrU_RNi5Ye-30" value="&lt;code&gt;categories&lt;/code&gt;" style="ellipse;whiteSpace=wrap;html=1;" parent="1" vertex="1">
          <mxGeometry x="319" y="890" width="88.5" height="31" as="geometry" />
        </mxCell>
        <mxCell id="TDnGn_1f78GrU_RNi5Ye-31" value="" style="endArrow=none;html=1;rounded=0;entryX=0.25;entryY=1;entryDx=0;entryDy=0;" parent="1" source="TDnGn_1f78GrU_RNi5Ye-30" target="TDnGn_1f78GrU_RNi5Ye-13" edge="1">
          <mxGeometry width="50" height="50" relative="1" as="geometry">
            <mxPoint x="461" y="1040.75" as="sourcePoint" />
            <mxPoint x="305" y="961.75" as="targetPoint" />
          </mxGeometry>
        </mxCell>
        <mxCell id="T5rermQS7O7GPR66ioIY-12" value="" style="rhombus;whiteSpace=wrap;html=1;" parent="1" vertex="1">
          <mxGeometry x="461" y="534" width="60" height="60" as="geometry" />
        </mxCell>
        <mxCell id="T5rermQS7O7GPR66ioIY-13" value="" style="endArrow=none;html=1;rounded=0;exitX=1.01;exitY=0.866;exitDx=0;exitDy=0;entryX=0;entryY=0.5;entryDx=0;entryDy=0;exitPerimeter=0;" parent="1" source="Rj8w-bVWe5VZsiDT0nC8-1" target="T5rermQS7O7GPR66ioIY-12" edge="1">
          <mxGeometry width="50" height="50" relative="1" as="geometry">
            <mxPoint x="338" y="420.7499999999999" as="sourcePoint" />
            <mxPoint x="461" y="544.75" as="targetPoint" />
          </mxGeometry>
        </mxCell>
        <mxCell id="T5rermQS7O7GPR66ioIY-14" value="1" style="edgeLabel;html=1;align=center;verticalAlign=middle;resizable=0;points=[];" parent="T5rermQS7O7GPR66ioIY-13" vertex="1" connectable="0">
          <mxGeometry x="0.5289" relative="1" as="geometry">
            <mxPoint as="offset" />
          </mxGeometry>
        </mxCell>
        <mxCell id="T5rermQS7O7GPR66ioIY-15" value="" style="endArrow=none;html=1;rounded=0;exitX=1;exitY=0.5;exitDx=0;exitDy=0;entryX=0.035;entryY=0.167;entryDx=0;entryDy=0;entryPerimeter=0;" parent="1" source="T5rermQS7O7GPR66ioIY-12" target="T5rermQS7O7GPR66ioIY-17" edge="1">
          <mxGeometry width="50" height="50" relative="1" as="geometry">
            <mxPoint x="514" y="684.75" as="sourcePoint" />
            <mxPoint x="623" y="495" as="targetPoint" />
          </mxGeometry>
        </mxCell>
        <mxCell id="T5rermQS7O7GPR66ioIY-16" value="n" style="edgeLabel;html=1;align=center;verticalAlign=middle;resizable=0;points=[];" parent="T5rermQS7O7GPR66ioIY-15" vertex="1" connectable="0">
          <mxGeometry x="-0.408" y="3" relative="1" as="geometry">
            <mxPoint y="1" as="offset" />
          </mxGeometry>
        </mxCell>
        <mxCell id="T5rermQS7O7GPR66ioIY-17" value="Notification" style="rounded=0;whiteSpace=wrap;html=1;" parent="1" vertex="1">
          <mxGeometry x="638" y="550" width="70" height="80" as="geometry" />
        </mxCell>
        <mxCell id="T5rermQS7O7GPR66ioIY-18" value="&lt;code&gt;notification_id&lt;/code&gt;" style="ellipse;whiteSpace=wrap;html=1;" parent="1" vertex="1">
          <mxGeometry x="750.5" y="480" width="110" height="39.25" as="geometry" />
        </mxCell>
        <mxCell id="T5rermQS7O7GPR66ioIY-19" value="" style="endArrow=none;html=1;rounded=0;exitX=0;exitY=1;exitDx=0;exitDy=0;entryX=1;entryY=0.25;entryDx=0;entryDy=0;" parent="1" source="T5rermQS7O7GPR66ioIY-18" edge="1" target="T5rermQS7O7GPR66ioIY-17">
          <mxGeometry width="50" height="50" relative="1" as="geometry">
            <mxPoint x="835.25" y="674.5" as="sourcePoint" />
            <mxPoint x="707.5" y="570" as="targetPoint" />
          </mxGeometry>
        </mxCell>
        <mxCell id="T5rermQS7O7GPR66ioIY-20" value="&lt;code&gt;user_id&lt;/code&gt;" style="ellipse;whiteSpace=wrap;html=1;" parent="1" vertex="1">
          <mxGeometry x="800.5" y="529.25" width="70" height="30" as="geometry" />
        </mxCell>
        <mxCell id="T5rermQS7O7GPR66ioIY-21" value="" style="endArrow=none;html=1;rounded=0;exitX=0;exitY=0.5;exitDx=0;exitDy=0;entryX=1;entryY=0.25;entryDx=0;entryDy=0;" parent="1" source="T5rermQS7O7GPR66ioIY-20" target="T5rermQS7O7GPR66ioIY-17" edge="1">
          <mxGeometry width="50" height="50" relative="1" as="geometry">
            <mxPoint x="861.25" y="723.75" as="sourcePoint" />
            <mxPoint x="725.5" y="605.25" as="targetPoint" />
          </mxGeometry>
        </mxCell>
        <mxCell id="T5rermQS7O7GPR66ioIY-23" value="&lt;code&gt;task_id&lt;/code&gt;" style="ellipse;whiteSpace=wrap;html=1;" parent="1" vertex="1">
          <mxGeometry x="801.5" y="569.25" width="70" height="30" as="geometry" />
        </mxCell>
        <mxCell id="T5rermQS7O7GPR66ioIY-24" value="" style="endArrow=none;html=1;rounded=0;exitX=0;exitY=0.5;exitDx=0;exitDy=0;entryX=1;entryY=0.25;entryDx=0;entryDy=0;" parent="1" source="T5rermQS7O7GPR66ioIY-23" target="T5rermQS7O7GPR66ioIY-17" edge="1">
          <mxGeometry width="50" height="50" relative="1" as="geometry">
            <mxPoint x="862.25" y="763.75" as="sourcePoint" />
            <mxPoint x="700.5" y="598" as="targetPoint" />
          </mxGeometry>
        </mxCell>
        <mxCell id="T5rermQS7O7GPR66ioIY-25" value="&lt;code&gt;type(Reminder,Update,Deadline)&lt;/code&gt;" style="ellipse;whiteSpace=wrap;html=1;" parent="1" vertex="1">
          <mxGeometry x="790.5" y="611.25" width="240" height="30" as="geometry" />
        </mxCell>
        <mxCell id="T5rermQS7O7GPR66ioIY-26" value="" style="endArrow=none;html=1;rounded=0;exitX=0;exitY=0.5;exitDx=0;exitDy=0;entryX=1;entryY=0.25;entryDx=0;entryDy=0;" parent="1" source="T5rermQS7O7GPR66ioIY-25" target="T5rermQS7O7GPR66ioIY-17" edge="1">
          <mxGeometry width="50" height="50" relative="1" as="geometry">
            <mxPoint x="851.25" y="805.75" as="sourcePoint" />
            <mxPoint x="688.5" y="600" as="targetPoint" />
          </mxGeometry>
        </mxCell>
        <mxCell id="T5rermQS7O7GPR66ioIY-27" value="&lt;code&gt;created_by&lt;/code&gt;" style="ellipse;whiteSpace=wrap;html=1;" parent="1" vertex="1">
          <mxGeometry x="784" y="652.25" width="86.5" height="30" as="geometry" />
        </mxCell>
        <mxCell id="T5rermQS7O7GPR66ioIY-28" value="" style="endArrow=none;html=1;rounded=0;exitX=0;exitY=0.5;exitDx=0;exitDy=0;entryX=1;entryY=0.25;entryDx=0;entryDy=0;" parent="1" source="T5rermQS7O7GPR66ioIY-27" target="T5rermQS7O7GPR66ioIY-17" edge="1">
          <mxGeometry width="50" height="50" relative="1" as="geometry">
            <mxPoint x="844.75" y="846.75" as="sourcePoint" />
            <mxPoint x="693" y="599" as="targetPoint" />
          </mxGeometry>
        </mxCell>
        <mxCell id="T5rermQS7O7GPR66ioIY-34" value="" style="rhombus;whiteSpace=wrap;html=1;" parent="1" vertex="1">
          <mxGeometry x="425" y="570" width="60" height="60" as="geometry" />
        </mxCell>
        <mxCell id="T5rermQS7O7GPR66ioIY-35" value="" style="endArrow=none;html=1;rounded=0;entryX=0;entryY=0.5;entryDx=0;entryDy=0;exitX=1;exitY=0.5;exitDx=0;exitDy=0;" parent="1" source="TDnGn_1f78GrU_RNi5Ye-13" target="T5rermQS7O7GPR66ioIY-34" edge="1">
          <mxGeometry width="50" height="50" relative="1" as="geometry">
            <mxPoint x="340" y="590" as="sourcePoint" />
            <mxPoint x="462" y="574.75" as="targetPoint" />
          </mxGeometry>
        </mxCell>
        <mxCell id="T5rermQS7O7GPR66ioIY-36" value="1" style="edgeLabel;html=1;align=center;verticalAlign=middle;resizable=0;points=[];" parent="T5rermQS7O7GPR66ioIY-35" vertex="1" connectable="0">
          <mxGeometry x="0.5289" relative="1" as="geometry">
            <mxPoint as="offset" />
          </mxGeometry>
        </mxCell>
        <mxCell id="T5rermQS7O7GPR66ioIY-37" value="" style="endArrow=none;html=1;rounded=0;exitX=1;exitY=0.5;exitDx=0;exitDy=0;entryX=0.003;entryY=0.636;entryDx=0;entryDy=0;entryPerimeter=0;" parent="1" source="T5rermQS7O7GPR66ioIY-34" target="T5rermQS7O7GPR66ioIY-17" edge="1">
          <mxGeometry width="50" height="50" relative="1" as="geometry">
            <mxPoint x="515" y="714.75" as="sourcePoint" />
            <mxPoint x="633" y="525" as="targetPoint" />
          </mxGeometry>
        </mxCell>
        <mxCell id="T5rermQS7O7GPR66ioIY-38" value="1" style="edgeLabel;html=1;align=center;verticalAlign=middle;resizable=0;points=[];" parent="T5rermQS7O7GPR66ioIY-37" vertex="1" connectable="0">
          <mxGeometry x="-0.408" y="3" relative="1" as="geometry">
            <mxPoint y="1" as="offset" />
          </mxGeometry>
        </mxCell>
        <mxCell id="HAXW_RtDJW_a83ujI_BT-1" value="" style="rhombus;whiteSpace=wrap;html=1;" vertex="1" parent="1">
          <mxGeometry x="263" y="710" width="68" height="60" as="geometry" />
        </mxCell>
        <mxCell id="HAXW_RtDJW_a83ujI_BT-2" value="" style="endArrow=none;html=1;rounded=0;entryX=0.5;entryY=0;entryDx=0;entryDy=0;exitX=0.5;exitY=1;exitDx=0;exitDy=0;" edge="1" parent="1" target="HAXW_RtDJW_a83ujI_BT-1">
          <mxGeometry width="50" height="50" relative="1" as="geometry">
            <mxPoint x="297" y="640" as="sourcePoint" />
            <mxPoint x="335" y="704.75" as="targetPoint" />
          </mxGeometry>
        </mxCell>
        <mxCell id="HAXW_RtDJW_a83ujI_BT-3" value="1" style="edgeLabel;html=1;align=center;verticalAlign=middle;resizable=0;points=[];" vertex="1" connectable="0" parent="HAXW_RtDJW_a83ujI_BT-2">
          <mxGeometry x="0.5289" relative="1" as="geometry">
            <mxPoint as="offset" />
          </mxGeometry>
        </mxCell>
        <mxCell id="HAXW_RtDJW_a83ujI_BT-4" value="" style="endArrow=none;html=1;rounded=0;exitX=0.5;exitY=1;exitDx=0;exitDy=0;entryX=0.5;entryY=0;entryDx=0;entryDy=0;" edge="1" parent="1" source="HAXW_RtDJW_a83ujI_BT-1" target="TDnGn_1f78GrU_RNi5Ye-13">
          <mxGeometry width="50" height="50" relative="1" as="geometry">
            <mxPoint x="345" y="844.75" as="sourcePoint" />
            <mxPoint x="297" y="820" as="targetPoint" />
          </mxGeometry>
        </mxCell>
        <mxCell id="HAXW_RtDJW_a83ujI_BT-5" value="n" style="edgeLabel;html=1;align=center;verticalAlign=middle;resizable=0;points=[];" vertex="1" connectable="0" parent="HAXW_RtDJW_a83ujI_BT-4">
          <mxGeometry x="-0.408" y="3" relative="1" as="geometry">
            <mxPoint y="1" as="offset" />
          </mxGeometry>
        </mxCell>
        <mxCell id="HAXW_RtDJW_a83ujI_BT-6" value="Category" style="rounded=0;whiteSpace=wrap;html=1;" vertex="1" parent="1">
          <mxGeometry x="260" y="612.25" width="80" height="23" as="geometry" />
        </mxCell>
        <mxCell id="HAXW_RtDJW_a83ujI_BT-10" value="&lt;code&gt;category_id&amp;nbsp;&lt;/code&gt;" style="ellipse;whiteSpace=wrap;html=1;" vertex="1" parent="1">
          <mxGeometry x="111.5" y="590" width="88.5" height="30" as="geometry" />
        </mxCell>
        <mxCell id="HAXW_RtDJW_a83ujI_BT-11" value="" style="endArrow=none;html=1;rounded=0;exitX=1;exitY=0.5;exitDx=0;exitDy=0;entryX=0;entryY=0.25;entryDx=0;entryDy=0;" edge="1" parent="1" source="HAXW_RtDJW_a83ujI_BT-10" target="HAXW_RtDJW_a83ujI_BT-6">
          <mxGeometry width="50" height="50" relative="1" as="geometry">
            <mxPoint x="153.5" y="825" as="sourcePoint" />
            <mxPoint x="219.5" y="605.25" as="targetPoint" />
          </mxGeometry>
        </mxCell>
        <mxCell id="HAXW_RtDJW_a83ujI_BT-12" value="&lt;code&gt;Name&lt;/code&gt;" style="ellipse;whiteSpace=wrap;html=1;" vertex="1" parent="1">
          <mxGeometry x="111.5" y="630" width="56" height="30" as="geometry" />
        </mxCell>
        <mxCell id="HAXW_RtDJW_a83ujI_BT-13" value="" style="endArrow=none;html=1;rounded=0;exitX=1;exitY=0.5;exitDx=0;exitDy=0;entryX=0;entryY=0.25;entryDx=0;entryDy=0;" edge="1" parent="1" source="HAXW_RtDJW_a83ujI_BT-12" target="HAXW_RtDJW_a83ujI_BT-6">
          <mxGeometry width="50" height="50" relative="1" as="geometry">
            <mxPoint x="157.5" y="862.75" as="sourcePoint" />
            <mxPoint x="264" y="655.75" as="targetPoint" />
          </mxGeometry>
        </mxCell>
        <mxCell id="HAXW_RtDJW_a83ujI_BT-14" value="&lt;code&gt;colour&lt;/code&gt;" style="ellipse;whiteSpace=wrap;html=1;" vertex="1" parent="1">
          <mxGeometry x="162" y="660" width="56" height="30" as="geometry" />
        </mxCell>
        <mxCell id="HAXW_RtDJW_a83ujI_BT-15" value="" style="endArrow=none;html=1;rounded=0;exitX=1;exitY=0;exitDx=0;exitDy=0;entryX=0;entryY=0.25;entryDx=0;entryDy=0;" edge="1" parent="1" source="HAXW_RtDJW_a83ujI_BT-14" target="HAXW_RtDJW_a83ujI_BT-6">
          <mxGeometry width="50" height="50" relative="1" as="geometry">
            <mxPoint x="191.5" y="894.75" as="sourcePoint" />
            <mxPoint x="294" y="650" as="targetPoint" />
          </mxGeometry>
        </mxCell>
      </root>
    </mxGraphModel>
  </diagram>
</mxfile>
